# xmcd
#
# Track frame offsets: 
#        150
#        20125
#        48567
#        70165
#        93287
#        115810
#        137887
#        161635
#        180350
#        205755
#        231132
#
# Disc length: 3449 seconds
#
# Revision: 5
# Processed by: cddbd v1.5.2PL0 Copyright (c) Steve Scherf et al.
# Submitted via: ExactAudioCopy v1.1
#
DISCID=930d770b
DTITLE=Warren Hill - Love Life
DYEAR=2000
DGENRE=Jazz
TTITLE0=Love Life
TTITLE1=Mambo 2000
TTITLE2=Cant Get You Out Of My Mind
TTITLE3=Mister Magic
TTITLE4=Easy
TTITLE5=Why You Got To Worry
TTITLE6=Sax In the City
TTITLE7=Doesnt Get Any Better
TTITLE8=Scenic Route
TTITLE9=Master Thief
TTITLE10=Olivia
EXTD=YEAR: 2000
EXTT0=
EXTT1=
EXTT2=
EXTT3=
EXTT4=
EXTT5=
EXTT6=
EXTT7=
EXTT8=
EXTT9=
EXTT10=
PLAYORDER=
